<?xml version="1.0" encoding="utf-8"?>
<!-- Generator: Adobe Illustrator 16.0.0, SVG Export Plug-In . SVG Version: 6.00 Build 0)  -->
<!DOCTYPE svg PUBLIC "-//W3C//DTD SVG 1.1//EN" "http://www.w3.org/Graphics/SVG/1.1/DTD/svg11.dtd">
<svg version="1.1" id="IEEE_Master_Brand" xmlns="http://www.w3.org/2000/svg" xmlns:xlink="http://www.w3.org/1999/xlink" x="0px"
	 y="0px" width="349.2px" height="101.801px" viewBox="0 0 349.2 101.801" enable-background="new 0 0 349.2 101.801"
	 xml:space="preserve">
<polygon fill="#FFFFFF" points="116.454,90.595 116.454,13.469 137.817,13.469 137.817,90.595 116.454,90.595 "/>
<polygon fill="#FFFFFF" points="149.03,90.595 149.03,13.469 207.78,13.469 207.78,28.422 170.393,28.422 170.393,44.337 
	204.787,44.337 204.787,59.294 170.393,59.294 170.393,75.635 207.78,75.635 207.78,90.595 149.03,90.595 "/>
<polygon fill="#FFFFFF" points="219.75,90.595 219.75,13.469 278.486,13.469 278.486,28.422 241.109,28.422 241.109,44.337 
	275.491,44.337 275.491,59.294 241.109,59.294 241.109,75.635 278.486,75.635 278.486,90.595 219.75,90.595 "/>
<polygon fill="#FFFFFF" points="290.449,90.595 290.449,13.469 349.2,13.469 349.2,28.422 311.826,28.422 311.826,44.337 
	346.21,44.337 346.21,59.294 311.826,59.294 311.826,75.635 349.2,75.635 349.2,90.595 290.449,90.595 "/>
<rect y="0.001" fill="none" width="349.2" height="101.799"/>
<path fill="#FFFFFF" d="M47.934,14.336c3.406-2.651,7.691-0.449,10.557,1.988c3.002,2.294,6.126,4.893,8.871,7.55l0.498,0.286
	c7.598,7.049,14.653,14.883,20.45,23.166c0.94,1.442,1.771,3.075,1.246,4.988c-1.934,4.832-5.861,8.685-9.296,12.903
	c-7.43,7.997-15.267,15.736-24.042,21.909c-1.774,1.256-4.168,2.415-6.294,1.418c-6.458-3.38-11.904-8.917-17.557-13.964
	c-6.556-6.079-13.135-13.156-18.104-20.56c-0.738-1.04-0.946-2.321-0.924-3.69c0.639-2.557,2.389-4.66,4.046-6.814
	c5.871-7.482,13.063-14.579,20.326-21.061c0.167-0.167,0.478-0.521,0.74-0.689C41.568,19.069,44.667,16.681,47.934,14.336
	L47.934,14.336z M57.917,6.55l-3.855-5.464c-0.473-0.289-1.063-0.765-1.584-0.905c-1.138-0.493-2.364,0.103-3.292,0.807
	l-6.979,9.089C31.014,23.94,17.762,36.886,3.305,46.81c-1.144,0.893-2.843,1.764-3.196,3.236c-0.379,1.324,0.31,2.416,1.131,3.239
	c11.577,7.974,22.646,17.44,32.498,28.235c1.749,1.839,3.167,3.666,4.877,5.39c2.881,3.837,6.268,7.699,8.916,11.813
	c0.829,0.868,0.973,2.295,2.272,2.719c1.016,0.353,2.272,0.591,3.241,0l0.964-0.968c11.979-16.971,27.171-32.211,44.145-44.514
	c1.699-1.517,4.943-2.082,4.99-4.898c-0.122-1.299-0.876-2.579-1.993-3.29l-0.278-0.045C92.138,41.787,84,35.067,76.333,27.444
	l-8.474-8.852C64.427,14.786,61.091,10.572,57.917,6.55L57.917,6.55z M49.186,16.422c3.483-2.373,6.606,0.943,9.305,2.839
	c10.433,8.397,20.278,18.009,27.778,28.863c0.947,1.401,1.374,3.576,0.525,5.161c-1.945,3.243-4.568,6.204-7.056,9.21v0.164
	c-6.202,6.603-12.752,13.391-19.832,18.981c-3.454,2.103-6.625,6.693-11.074,3.85c-10.131-7.403-19.826-16.608-28.045-26.481
	c-1.393-2.17-3.569-3.948-4.538-6.41c-1.353-3.333,1.629-5.726,3.335-8.236C27.964,34.028,38.372,23.893,49.186,16.422
	L49.186,16.422z M51.385,23.234l-0.944,3.03l-4.734,13.558c1.186,0.121,2.653,0,3.817,0.121v0.111L48.832,55.39l0.12,0.162
	c1.514,0.148,3.404,0.224,4.947-0.04v-0.241l-0.618-14.875l0.093-0.503l4.165-0.071c-2.078-5.488-4.092-11.032-6.031-16.588H51.385
	L51.385,23.234z M35.275,44.478c-2.654,1.332-6.56,3.342-6.13,6.983c0.569,1.988,2.722,3.272,4.425,4.09
	c9.416,4.147,21.916,4.29,31.857,1.193c2.454-0.945,5.747-2.318,6.199-5.325c-0.027-2.484-2.656-4.048-4.546-5v-0.117
	c0.659-0.262,1.417-0.494,2.099-0.567V45.67c-3.33-0.596-6.543-1.467-9.769-2.32c0.621,1.416,1.069,2.908,1.587,4.378
	c0.969-0.31,1.963-0.545,3.009-0.688c1.701,0.662,4.135,1.609,4.376,3.736c0.188,1.987-1.987,2.957-3.361,3.765
	c-7.291,2.652-15.496,2.911-23.1,0.895c-2.1-0.662-5.132-1.512-5.393-4.187c1.492-3.521,5.348-4.253,8.568-5.109
	c-1.655-1.065-3.339-2.01-4.943-3.196C38.42,43.04,36.837,43.797,35.275,44.478L35.275,44.478z M48.737,59.771
	c-0.283,5.446-0.353,10.486-0.754,15.946c2.155,0.196,4.587,0.384,6.885,0.049l-0.685-15.22l-0.121-0.724
	C52.311,59.89,50.654,59.96,48.737,59.771L48.737,59.771z"/>
<g>
	<path fill-rule="evenodd" clip-rule="evenodd" fill="#FFFFFF" d="M68.838,90.919c-1.905,0-3.599,1.318-3.599,3.58
		c0,2.267,1.694,3.591,3.599,3.591c1.892,0,3.589-1.324,3.589-3.591C72.427,92.237,70.73,90.919,68.838,90.919z M68.838,97.26
		v-0.012c-1.421,0.012-2.566-1.093-2.566-2.749c0-1.647,1.146-2.744,2.566-2.744c1.387,0,2.569,1.097,2.569,2.744
		C71.407,96.155,70.225,97.26,68.838,97.26z M70.44,93.734c0-0.883-0.583-1.162-1.582-1.162h-1.441v3.857h0.825v-1.622h0.392
		l0.888,1.622h0.983l-0.996-1.691C70.032,94.694,70.44,94.442,70.44,93.734z M68.977,94.152h-0.735v-0.932h0.581
		c0.315,0,0.743,0.031,0.743,0.432C69.565,94.075,69.347,94.152,68.977,94.152z"/>
</g>
</svg>
